<svg width="384" height="39" viewBox="0 0 384 39" fill="none" xmlns="http://www.w3.org/2000/svg">
<g clip-path="url(#clip0)">
<path d="M28.4787 22.4047C29.7831 23.9472 30.4545 25.8755 30.3714 27.8408C30.488 29.2967 30.2335 30.7577 29.629 32.1037C29.0245 33.4496 28.0872 34.6422 26.8941 35.5832C23.4349 37.5899 19.3707 38.4863 15.3177 38.1365H0V0.70142H15.3177C18.9885 0.36903 22.6668 1.25859 25.7056 3.21356C26.7772 4.17374 27.6089 5.34338 28.1415 6.63902C28.6741 7.93465 28.8945 9.32431 28.7868 10.7088C28.8555 12.5104 28.3828 14.2939 27.4223 15.8566C26.3735 17.3612 24.8278 18.5037 23.0206 19.1101C25.161 19.6524 27.0683 20.8037 28.4787 22.4047V22.4047ZM7.35076 16.4744H15.3177C19.3232 16.4744 21.348 14.7035 21.348 11.203C21.4152 10.4984 21.3289 9.78845 21.0943 9.11598C20.8598 8.44352 20.4819 7.82255 19.9835 7.29065C18.6346 6.37623 16.9763 5.95177 15.3177 6.09635H7.35076V16.4744ZM21.0399 23.3931C19.3059 22.459 17.3139 22.0289 15.3177 22.1576H7.35076V32.618H15.3177C17.3795 32.7991 19.4486 32.3512 21.216 31.3413C21.8355 30.835 22.3151 30.1962 22.614 29.4791C22.9129 28.7621 23.0222 27.9881 22.9326 27.2231C22.9729 26.4889 22.8217 25.7566 22.492 25.0893C22.1622 24.422 21.6638 23.8399 21.0399 23.3931V23.3931Z" fill="#222C9D"/>
<path d="M50.795 23.4749H44.6767V38.136H37.3259V0.700897H52.5116C61.9311 0.700897 66.6409 4.4897 66.6409 12.1085C66.7561 14.5808 66.0151 17.0218 64.5281 19.0684C62.9924 20.9784 60.7741 22.3084 58.2778 22.816L68.4016 38.136H60.2145L50.795 23.4749ZM44.6767 17.5858H52.5116C56.9132 17.5858 59.2021 15.7326 59.2021 11.9438C59.2862 11.1828 59.1787 10.414 58.8883 9.69887C58.5978 8.98374 58.1325 8.34217 57.5295 7.8255C56.0672 6.86544 54.2922 6.41384 52.5116 6.54884H44.6767V17.5858Z" fill="#222C9D"/>
<path d="M99.523 28.8272H83.4129L79.8476 38.0521H72.4528L86.9783 0.164032H95.7816L110.351 38.0521H103.044L99.523 28.8272ZM97.2341 22.8557L91.4239 7.6181L85.6578 22.8557H97.2341Z" fill="#222C9D"/>
<path d="M144.814 0.700897L130.289 38.589H121.486L106.828 0.700897H114.443L125.887 31.0937L137.2 0.700897H144.814Z" fill="#222C9D"/>
<path d="M176.066 32.5351V38.136H150.316V0.700897H175.714V6.34292H157.667V16.4739H173.073V22.1571H157.667V32.5351H176.066Z" fill="#222C9D"/>
<path d="M197.722 33.7711C194.111 29.8177 192.267 24.7145 192.572 19.5219C192.507 16.0794 193.29 12.669 194.861 9.55565C196.354 6.64724 198.726 4.21285 201.684 2.5546C205.108 0.766448 208.988 -0.116189 212.908 0.00127175C214.591 -0.0195725 216.272 0.118401 217.926 0.413099C219.539 0.741082 221.116 1.20987 222.636 1.81331V7.90835C219.666 6.54074 216.393 5.84929 213.084 5.89039C210.651 5.83428 208.252 6.43475 206.173 7.62007C204.208 8.77091 202.623 10.4107 201.596 12.3561C200.475 14.5385 199.918 16.9364 199.967 19.3571C199.809 22.9429 201.026 26.4634 203.4 29.2822C204.582 30.5324 206.052 31.5155 207.699 32.1575C209.346 32.7995 211.127 33.0837 212.908 32.9886C214.695 32.9843 216.472 32.7487 218.19 32.2885C220.05 31.7218 221.861 31.0195 223.604 30.1882L225.805 35.8714C223.767 36.8542 221.609 37.601 219.378 38.0952C217.264 38.6032 215.091 38.866 212.908 38.8777C210.135 39.0818 207.346 38.7321 204.728 37.8517C202.11 36.9713 199.722 35.5804 197.722 33.7711Z" fill="#222C9D"/>
<path d="M244.292 23.4749H238.173V38.136H230.823V0.700897H246.008C255.428 0.700897 260.138 4.4897 260.138 12.1085C260.253 14.5808 259.512 17.0218 258.025 19.0684C256.489 20.9784 254.271 22.3084 251.774 22.816L261.898 38.136H253.711L244.292 23.4749ZM238.173 17.5858H246.008C250.41 17.5858 252.699 15.7326 252.699 11.9438C252.783 11.1828 252.675 10.414 252.385 9.69887C252.094 8.98374 251.629 8.34217 251.026 7.8255C249.564 6.86544 247.789 6.41384 246.008 6.54884H238.173V17.5858Z" fill="#222C9D"/>
<path d="M292.886 32.5351V38.136H267.18V0.700897H292.622V6.34292H274.531V16.4739H289.981V22.1571H274.531V32.5351H292.886Z" fill="#222C9D"/>
<path d="M328.671 5.47883C330.542 7.34393 331.98 9.5503 332.896 11.9597C333.813 14.3692 334.188 16.9297 333.997 19.4809C334.201 22.0236 333.836 24.578 332.927 26.9816C332.017 29.3852 330.583 31.5853 328.715 33.4419C324.315 36.8639 318.663 38.5479 312.957 38.1367H299.312V0.701638H312.957C318.664 0.288476 324.314 2.00602 328.671 5.47883V5.47883ZM323.169 9.5971C320.321 7.37658 316.652 6.29636 312.957 6.59076H306.575V32.2888H312.957C314.8 32.4333 316.655 32.2348 318.416 31.7046C320.176 31.1745 321.807 30.3232 323.213 29.2001C324.453 27.8467 325.392 26.2753 325.974 24.5781C326.556 22.8808 326.769 21.0918 326.602 19.3162C326.76 17.5759 326.537 15.8238 325.947 14.1669C325.357 12.51 324.411 10.9831 323.169 9.67946V9.5971Z" fill="#222C9D"/>
<path d="M340.38 0.700897H347.73V38.136H340.38V0.700897Z" fill="#222C9D"/>
<path d="M384 6.67239H372.468V38.136H365.337V6.67239H353.673V0.700897H384V6.67239Z" fill="#222C9D"/>
</g>
<defs>
<clipPath id="clip0">
<rect width="384" height="39" fill="white"/>
</clipPath>
</defs>
</svg>
